<svg xmlns="http://www.w3.org/2000/svg" viewBox="0 0 113.06 113.06"><rect width="113.06" height="113.06" rx="22" fill="#0b1426"/><path fill="#4d6fff" d="m56.53,0C25.31,0,0,25.31,0,56.53s25.31,56.53,56.53,56.53,56.53-25.31,56.53-56.53S87.75,0,56.53,0Zm-23.66,67.57c-2.78-1.22-5.23-2.87-7.28-4.93-2.05-2.05-3.71-4.5-4.93-7.28-1.19-2.71-1.8-5.63-1.82-8.69v-.05s0-.09,0-.09c.02-3.06.63-5.98,1.82-8.69,1.22-2.78,2.88-5.23,4.93-7.28,2.05-2.05,4.5-3.71,7.28-4.93,2.76-1.21,5.73-1.82,8.84-1.82h25.04v7.33h-25.04c-2.15,0-4.19.41-6.04,1.23-1.83.8-3.46,1.92-4.85,3.3-1.39,1.39-2.5,3.05-3.31,4.93-.8,1.86-1.21,3.88-1.22,6.01.01,2.12.42,4.14,1.22,6,.8,1.88,1.92,3.53,3.31,4.93,1.39,1.39,3.02,2.5,4.85,3.3,1.85.81,3.89,1.23,6.04,1.23h25.04v7.33h-25.04c-3.11,0-6.08-.61-8.84-1.82Zm61.34-1.04c-.02,3.06-.63,5.98-1.82,8.69-1.22,2.78-2.88,5.23-4.93,7.28-2.05,2.05-4.5,3.71-7.28,4.93-2.76,1.21-5.73,1.82-8.84,1.82h-25.04v-7.33h25.04c2.15,0,4.19-.41,6.04-1.23,1.83-.8,3.47-1.92,4.85-3.3,1.39-1.39,2.5-3.05,3.31-4.93.8-1.86,1.21-3.88,1.22-6.01-.01-2.12-.42-4.14-1.22-6-.8-1.88-1.92-3.53-3.31-4.93s-3.02-2.5-4.85-3.3c-1.85-.81-3.88-1.22-6.04-1.22h-25.04v-7.33h25.04c3.11,0,6.08.61,8.84,1.82,2.78,1.22,5.23,2.87,7.28,4.93,2.05,2.05,3.71,4.5,4.93,7.28,1.19,2.71,1.8,5.63,1.82,8.69v.05s0,.09,0,.09Z"/></svg>
